#N canvas 1419 83 357 326 12;
#X floatatom 217 39 5 0 0 1 base_10 - -, f 5;
#X floatatom 217 162 5 0 0 1 LSD_base_5 - -, f 5;
#X floatatom 171 162 5 0 0 0 - - -, f 5;
#X floatatom 171 74 5 0 0 0 - - -, f 5;
#X floatatom 124 162 5 0 0 0 - - -, f 5;
#X floatatom 77 162 5 0 0 0 MSD - -, f 5;
#X floatatom 124 110 5 0 0 0 - - -, f 5;
#X text 31 39 base 4 up to 256;
#X text 30 55 base 8 up to 4095;
#X obj 217 17 inlet;
#X obj 59 276 outlet;
#X obj 171 56 / 5;
#X obj 124 92 / 5;
#X obj 77 126 / 5;
#X obj 77 144 mod 5;
#X obj 124 144 mod 5;
#X obj 171 144 mod 5;
#X obj 217 144 mod 5;
#X obj 59 257 mod 5;
#X obj 153 190 +;
#X obj 106 213 +;
#X obj 59 237 +;
#X floatatom 34 257 3 0 0 0 - - -, f 3;
#X connect 0 0 11 0;
#X connect 0 0 17 0;
#X connect 1 0 19 0;
#X connect 2 0 19 1;
#X connect 3 0 12 0;
#X connect 3 0 16 0;
#X connect 4 0 20 1;
#X connect 5 0 21 1;
#X connect 6 0 13 0;
#X connect 6 0 15 0;
#X connect 9 0 0 0;
#X connect 11 0 3 0;
#X connect 12 0 6 0;
#X connect 13 0 14 0;
#X connect 14 0 5 0;
#X connect 15 0 4 0;
#X connect 16 0 2 0;
#X connect 17 0 1 0;
#X connect 18 0 10 0;
#X connect 19 0 20 0;
#X connect 20 0 21 0;
#X connect 21 0 18 0;
#X connect 21 0 22 0;
