#N canvas 277 205 748 489 12;
#X floatatom 411 86 5 0 0 1 base_10 - -, f 5;
#X floatatom 411 209 5 0 0 1 LSD_base_7 - -, f 5;
#X floatatom 365 209 5 0 0 0 - - -, f 5;
#X floatatom 365 121 5 0 0 0 - - -, f 5;
#X floatatom 225 334 3 0 0 0 next_in_sequence - -, f 3;
#X floatatom 318 209 5 0 0 0 - - -, f 5;
#X floatatom 271 209 5 0 0 0 MSD - -, f 5;
#X floatatom 318 157 5 0 0 0 - - -, f 5;
#X text 168 49 base 4 up to 256;
#X text 167 65 base 8 up to 4095;
#X obj 411 64 inlet;
#X obj 253 334 outlet;
#X obj 365 103 / 7;
#X obj 318 139 / 7;
#X obj 271 173 / 7;
#X obj 271 191 mod 7;
#X obj 318 191 mod 7;
#X obj 365 191 mod 7;
#X obj 411 191 mod 7;
#X obj 253 312 mod 7;
#X obj 347 245 +;
#X obj 300 268 +;
#X obj 253 292 +;
#X floatatom 209 312 5 0 0 0 - - -, f 5;
#X connect 0 0 12 0;
#X connect 0 0 18 0;
#X connect 1 0 20 0;
#X connect 2 0 20 1;
#X connect 3 0 13 0;
#X connect 3 0 17 0;
#X connect 5 0 21 1;
#X connect 6 0 22 1;
#X connect 7 0 14 0;
#X connect 7 0 16 0;
#X connect 10 0 0 0;
#X connect 12 0 3 0;
#X connect 13 0 7 0;
#X connect 14 0 15 0;
#X connect 15 0 6 0;
#X connect 16 0 5 0;
#X connect 17 0 2 0;
#X connect 18 0 1 0;
#X connect 19 0 4 0;
#X connect 19 0 11 0;
#X connect 20 0 21 0;
#X connect 21 0 22 0;
#X connect 22 0 19 0;
#X connect 22 0 23 0;
